<svg width="85" height="67" viewBox="0 0 85 67" fill="none" xmlns="http://www.w3.org/2000/svg">
<path d="M0 51.2508C2.10515 51.8491 3.53859 52.2061 5.18736 52.2061C8.55882 52.2061 10.7829 50.2216 10.7829 47.5166C10.7829 45.7701 9.75441 44.0719 6.33796 42.5409C3.27504 41.1996 2.48762 40.2186 2.48762 38.4979C2.48762 37.0376 3.99497 36.1756 5.78516 36.1756C6.24154 36.1756 6.95826 36.2721 7.53356 36.5359L8.70344 39.4049H9.89904L9.92154 35.8186C8.39169 35.1947 7.29251 34.9792 6.0262 34.9792C2.70295 34.9792 0.215336 36.7031 0.215336 39.4789C0.215336 40.8426 0.359965 42.5891 4.90131 44.5029C7.72318 45.8441 8.39169 46.8958 8.39169 48.2821C8.39169 49.6008 7.2218 51.0096 5.18736 51.0096C4.58956 51.0096 3.27504 51.0096 2.34299 50.6526L1.1731 47.6131H0V51.2508ZM19.3417 51.9681V51.1318L17.6704 50.5336V46.1529H19.0074L23.6709 51.9681H26.8271V51.1318L25.1526 50.5336L21.1833 45.5064L24.0534 41.4409L25.7279 40.8426V40.0031H20.7526V40.8426L22.4271 41.4409L19.9652 44.9564H17.6704V34.2619L13.8908 34.9792V35.8186L15.5653 36.1756V50.5336L13.8908 51.1318V51.9681H19.3417ZM38.1113 41.4409L39.7858 40.8426V40.0031H35.0291V40.8426L36.7004 41.4409L33.57 49.6941L33.4253 49.7198V48.5458L30.6999 41.4409L32.3744 40.8426V40.0031H26.7081V40.8426L28.3794 41.4409L32.7086 51.9681V52.2061L29.4336 57.2558L31.6802 58.4298L38.1113 41.4409ZM41.1485 51.2508C43.2537 51.8491 44.6871 52.2061 46.3359 52.2061C49.7073 52.2061 51.9314 50.2216 51.9314 47.5166C51.9314 45.7701 50.9029 44.0719 47.4833 42.5409C44.4236 41.1996 43.6361 40.2186 43.6361 38.4979C43.6361 37.0376 45.1403 36.1756 46.9337 36.1756C47.3901 36.1756 48.1068 36.2721 48.6789 36.5359L49.852 39.4049H51.0476L51.0701 35.8186C49.5402 35.1947 48.441 34.9792 47.1747 34.9792C43.8515 34.9792 41.3639 36.7031 41.3639 39.4789C41.3639 40.8426 41.5085 42.5891 46.0498 44.5029C48.8717 45.8441 49.5402 46.8958 49.5402 48.2821C49.5402 49.6008 48.3703 51.0096 46.3359 51.0096C45.7381 51.0096 44.4236 51.0096 43.4915 50.6526L42.3216 47.6131H41.1485V51.2508ZM61.1362 52.2061C65.0348 52.2061 66.9953 48.9286 66.9953 45.9856C66.9953 43.0683 65.0348 39.7651 61.1362 39.7651C57.2409 39.7651 55.2804 43.0683 55.2804 45.9856C55.2804 48.9286 57.2409 52.2061 61.1362 52.2061ZM61.1362 51.0096C58.6518 51.0096 57.6716 48.7613 57.6716 45.9856C57.6716 43.2099 58.6518 40.9616 61.1362 40.9616C63.6239 40.9616 64.6041 43.2099 64.6041 45.9856C64.6041 48.7613 63.6239 51.0096 61.1362 51.0096ZM73.2111 41.1996H76.1037V40.0031H73.2111V38.4239C73.2111 37.3014 73.5711 35.0499 75.2906 35.0499C75.5059 35.0499 75.7213 35.0982 76.0812 35.2204L76.8686 37.1824H78.0417V34.3809C77.2029 34.1172 76.5569 34.0239 75.9141 34.0239C74.3103 34.0239 73.044 34.4999 72.112 35.4809C71.0835 36.5584 71.106 38.2084 71.106 39.8616V40.0031L68.9076 40.4824V41.1996H71.106V50.5336L69.4347 51.1318V51.9681H75.3645V51.1318L73.2111 50.5336V41.1996ZM84.8554 40.0031H81.0307V37.0151H79.8351L78.8774 39.9806V40.0031L77.2029 40.4824V41.1996H78.8774V49.5268C78.8774 51.2508 80.1212 52.2061 81.9371 52.2061C83.6823 52.2061 84.4022 51.4888 85 51.0836L84.5693 50.3406C84.2801 50.5078 83.5891 50.9163 82.6538 50.9163C81.0532 50.9163 81.1014 49.9578 81.0307 48.6906V41.1996H84.8554V40.0031Z" fill="black"/>
<path d="M1.48312 62.0868C1.69953 62.0868 1.88915 62.12 2.05199 62.1865C2.21698 62.253 2.34339 62.3462 2.43124 62.4663C2.52123 62.5885 2.56623 62.7269 2.56623 62.8812C2.56623 63.0506 2.50945 63.1975 2.39589 63.3219C2.28019 63.4441 2.10127 63.5288 1.85915 63.576C2.11842 63.606 2.31554 63.6821 2.45053 63.8043C2.58551 63.9266 2.65301 64.0949 2.65301 64.3093C2.65301 64.4959 2.60051 64.6588 2.49552 64.7982C2.39053 64.9376 2.24269 65.0448 2.05199 65.1198C1.86344 65.1949 1.64382 65.2324 1.39313 65.2324C1.15101 65.2324 0.943172 65.196 0.769617 65.123C0.596062 65.0501 0.443934 64.944 0.313232 64.8046L0.769617 64.3576C0.866036 64.4433 0.957099 64.5066 1.0428 64.5473C1.12851 64.5881 1.22279 64.6084 1.32563 64.6084C1.45205 64.6084 1.55276 64.5784 1.62775 64.5184C1.70274 64.4583 1.74024 64.3693 1.74024 64.2514C1.74024 64.1356 1.70167 64.0456 1.62453 63.9812C1.5474 63.9169 1.43277 63.8847 1.28064 63.8847H0.952814L1.05245 63.2833H1.29992C1.42205 63.2833 1.51419 63.2565 1.57632 63.2029C1.63846 63.1493 1.66953 63.0764 1.66953 62.9842C1.66953 62.8984 1.64382 62.8298 1.59239 62.7783C1.54097 62.7269 1.46062 62.7011 1.35135 62.7011C1.17993 62.7011 1.00209 62.7751 0.817827 62.923L0.409652 62.4953C0.696767 62.223 1.05459 62.0868 1.48312 62.0868ZM4.87065 64.4058C4.87065 64.4851 4.88029 64.5441 4.89958 64.5827C4.91886 64.6213 4.95421 64.6502 5.00564 64.6695L4.8353 65.2131C4.68103 65.2024 4.55568 65.1734 4.45926 65.1263C4.36284 65.0791 4.28356 65.003 4.22143 64.8979C4.07144 65.1209 3.84218 65.2324 3.53364 65.2324C3.30866 65.2324 3.12653 65.1638 2.98726 65.0266C2.85013 64.8915 2.78157 64.7178 2.78157 64.5055C2.78157 64.2503 2.87477 64.0563 3.06118 63.9233C3.24974 63.7883 3.52399 63.7207 3.88396 63.7207H4.04466V63.666C4.04466 63.5524 4.02216 63.4752 3.97717 63.4345C3.93217 63.3959 3.84539 63.3766 3.71683 63.3766C3.64827 63.3766 3.56042 63.3873 3.45329 63.4087C3.34615 63.4302 3.23688 63.4591 3.12546 63.4956L2.94226 62.9584C3.08154 62.9005 3.23367 62.8555 3.39865 62.8233C3.56149 62.7933 3.71041 62.7783 3.84539 62.7783C4.20321 62.7783 4.46355 62.8469 4.62639 62.9842C4.78923 63.1235 4.87065 63.3358 4.87065 63.621V64.4058ZM3.79397 64.6374C3.84539 64.6374 3.89253 64.6245 3.93538 64.5988C3.98038 64.573 4.0168 64.5398 4.04466 64.4991V64.1614H3.95467C3.83468 64.1614 3.74683 64.1828 3.69112 64.2257C3.63327 64.2686 3.60434 64.334 3.60434 64.4219C3.60434 64.4884 3.62149 64.5409 3.65577 64.5795C3.69005 64.6181 3.73612 64.6374 3.79397 64.6374ZM6.57727 63.0292C6.73154 63.0292 6.87296 63.071 7.00152 63.1546C7.13222 63.2361 7.23614 63.3573 7.31327 63.5181C7.39255 63.6768 7.43219 63.8687 7.43219 64.0938C7.43219 64.319 7.38612 64.5173 7.29399 64.6888C7.20185 64.8625 7.06901 64.9965 6.89546 65.0909C6.72404 65.1852 6.52371 65.2324 6.29444 65.2324C5.93448 65.2324 5.65272 65.1198 5.44917 64.8947C5.24561 64.6695 5.14384 64.3232 5.14384 63.8558C5.14384 63.5213 5.17384 63.249 5.23383 63.0388C5.29168 62.8287 5.39239 62.6561 5.53594 62.521C5.67736 62.3881 5.87555 62.283 6.13053 62.2058C6.30408 62.1543 6.43907 62.1072 6.53549 62.0643C6.63405 62.0214 6.75725 61.9603 6.9051 61.8809L7.19757 62.3923C7.09258 62.461 6.98652 62.5178 6.87938 62.5628C6.77225 62.6057 6.62655 62.6561 6.44228 62.714C6.27302 62.7654 6.15088 62.8362 6.07589 62.9263C6.0009 63.0163 5.95162 63.1568 5.92805 63.3476C6.01161 63.2383 6.10375 63.1578 6.20445 63.1064C6.30515 63.0549 6.42943 63.0292 6.57727 63.0292ZM6.28801 64.6245C6.38229 64.6245 6.45193 64.587 6.49692 64.5119C6.54192 64.4347 6.56442 64.3039 6.56442 64.1195C6.56442 63.9287 6.54513 63.8 6.50656 63.7336C6.46585 63.6692 6.40157 63.6371 6.31373 63.6371C6.25373 63.6371 6.19695 63.6532 6.14338 63.6853C6.08768 63.7175 6.04268 63.7657 6.0084 63.8301V64.1356C6.0084 64.3093 6.03304 64.4347 6.08232 64.5119C6.1316 64.587 6.20016 64.6245 6.28801 64.6245ZM9.14845 65.1423C9.05203 65.4576 8.88705 65.6966 8.6535 65.8596C8.41995 66.0226 8.11248 66.1094 7.73109 66.1201L7.6411 65.5444C7.85965 65.5208 8.02249 65.4801 8.12962 65.4222C8.23675 65.3664 8.32032 65.2742 8.38031 65.1456H8.09105L7.44183 62.8619H8.33853L8.62457 64.6277L8.97811 62.8619H9.8491L9.14845 65.1423ZM12.1889 65.895H11.6329L11.5493 65.1456H10.4244L10.3408 65.895H9.78482V64.5377H9.91659C9.95945 64.5076 9.9948 64.4637 10.0227 64.4058C10.0484 64.35 10.0741 64.2578 10.0998 64.1292C10.1234 64.0027 10.1448 63.8247 10.1641 63.5953L10.2283 62.8619H11.9446V64.5377H12.1889V65.895ZM10.9419 63.3926L10.929 63.5245C10.899 63.8333 10.8529 64.0649 10.7908 64.2192C10.7287 64.3715 10.6387 64.4776 10.5208 64.5377H11.17V63.3926H10.9419ZM13.2495 63.5599C13.633 63.5599 13.9158 63.6253 14.098 63.7561C14.2801 63.8869 14.3712 64.0874 14.3712 64.3576C14.3712 64.6084 14.2812 64.8025 14.1012 64.9397C13.9191 65.0769 13.6737 65.1456 13.3652 65.1456H12.3271V62.8619H13.1724V63.5599H13.2495ZM13.2688 64.6213C13.3545 64.6213 13.4188 64.5956 13.4616 64.5441C13.5023 64.4948 13.5227 64.4272 13.5227 64.3415C13.5227 64.2514 13.5002 64.1839 13.4552 64.1388C13.4123 64.0938 13.3395 64.0713 13.2366 64.0713H13.1724V64.6213H13.2688ZM15.8528 63.4731V65.1456H15.0075V63.4731H14.3937V62.8619H16.5085L16.3992 63.4731H15.8528ZM18.7936 63.9748C18.7936 64.0456 18.7872 64.1356 18.7743 64.245H17.3923C17.4137 64.3972 17.4609 64.5001 17.5337 64.5538C17.6066 64.6074 17.7116 64.6342 17.8487 64.6342C17.928 64.6342 18.0094 64.617 18.0929 64.5827C18.1744 64.5505 18.2654 64.5001 18.3661 64.4315L18.7068 64.8947C18.4304 65.1198 18.1176 65.2324 17.7683 65.2324C17.3634 65.2324 17.057 65.1198 16.8491 64.8947C16.6413 64.6717 16.5374 64.3769 16.5374 64.0102C16.5374 63.7807 16.5802 63.5728 16.6659 63.3862C16.7538 63.1997 16.8834 63.0517 17.0548 62.9423C17.2241 62.833 17.4298 62.7783 17.6719 62.7783C17.8969 62.7783 18.094 62.8255 18.2633 62.9198C18.4304 63.0142 18.56 63.1503 18.6522 63.3283C18.7465 63.5084 18.7936 63.7239 18.7936 63.9748ZM17.958 63.7336C17.9558 63.6006 17.9355 63.4966 17.8969 63.4216C17.8583 63.3487 17.7898 63.3122 17.6912 63.3122C17.5969 63.3122 17.5262 63.3444 17.4791 63.4087C17.4319 63.4752 17.4009 63.5942 17.3859 63.7657H17.958V63.7336ZM21.3776 62.7783C21.6669 62.7783 21.8844 62.8845 22.0301 63.0967C22.1758 63.309 22.2486 63.6092 22.2486 63.9973C22.2486 64.2332 22.2101 64.4444 22.1329 64.6309C22.0579 64.8175 21.9519 64.9644 21.8147 65.0716C21.6755 65.1788 21.5169 65.2324 21.3391 65.2324C21.1227 65.2324 20.9459 65.1563 20.8088 65.004V66.0301L19.9635 66.1169V62.8619H20.7156L20.7477 63.0871C20.8398 62.9777 20.9416 62.8984 21.053 62.8491C21.1623 62.8019 21.2705 62.7783 21.3776 62.7783ZM21.0594 64.6277C21.2737 64.6277 21.3808 64.4219 21.3808 64.0102C21.3808 63.8322 21.3691 63.6982 21.3455 63.6081C21.3198 63.5181 21.2876 63.458 21.2491 63.428C21.2084 63.4001 21.1548 63.3862 21.0884 63.3862C20.9812 63.3862 20.888 63.457 20.8088 63.5985V64.4701C20.8452 64.528 20.8837 64.5688 20.9245 64.5923C20.963 64.6159 21.008 64.6277 21.0594 64.6277ZM23.9842 65.1423C23.8877 65.4576 23.7228 65.6966 23.4892 65.8596C23.2557 66.0226 22.9482 66.1094 22.5668 66.1201L22.4768 65.5444C22.6975 65.5208 22.8614 65.4801 22.9685 65.4222C23.0735 65.3664 23.156 65.2742 23.216 65.1456H22.9268L22.2775 62.8619H23.1742L23.4603 64.6277L23.8138 62.8619H24.6848L23.9842 65.1423ZM26.0829 63.4731V65.1456H25.2376V63.4731H24.6205V62.8619H26.7353L26.6293 63.4731H26.0829ZM28.217 65.1456V64.4605C28.217 64.2075 28.2577 63.9341 28.3391 63.6403L27.6931 65.1456H26.8735V62.8619H27.6706V63.5631C27.6706 63.8376 27.631 64.111 27.5517 64.3833L28.188 62.8619H29.0108V65.1456H28.217ZM30.2161 64.2964V65.1456H29.3708V62.8619H30.2161V63.6885H30.6532V62.8619H31.4984V65.1456H30.6532V64.2964H30.2161ZM33.3208 65.1423C33.2243 65.4576 33.0594 65.6966 32.8258 65.8596C32.5923 66.0226 32.2848 66.1094 31.9034 66.1201L31.8134 65.5444C32.0341 65.5208 32.1969 65.4801 32.3019 65.4222C32.4091 65.3664 32.4926 65.2742 32.5526 65.1456H32.2634L31.6141 62.8619H32.5108L32.7969 64.6277L33.1504 62.8619H34.0214L33.3208 65.1423ZM34.4714 64.3511C34.5935 64.3511 34.6974 64.394 34.7831 64.4798C34.8688 64.5677 34.9117 64.6717 34.9117 64.7918C34.9117 64.9118 34.8688 65.0148 34.7831 65.1005C34.6974 65.1884 34.5935 65.2324 34.4714 65.2324C34.3492 65.2324 34.2453 65.1884 34.1596 65.1005C34.0739 65.0148 34.0311 64.9118 34.0311 64.7918C34.0311 64.6717 34.0739 64.5677 34.1596 64.4798C34.2453 64.394 34.3492 64.3511 34.4714 64.3511ZM37.049 62.0868C37.2654 62.0868 37.4561 62.12 37.6211 62.1865C37.7839 62.253 37.9103 62.3462 38.0003 62.4663C38.0903 62.5885 38.1353 62.7269 38.1353 62.8812C38.1353 63.0506 38.0774 63.1975 37.9617 63.3219C37.846 63.4441 37.6671 63.5288 37.425 63.576C37.6843 63.606 37.8814 63.6821 38.0164 63.8043C38.1514 63.9266 38.2189 64.0949 38.2189 64.3093C38.2189 64.4959 38.1664 64.6588 38.0614 64.7982C37.9564 64.9376 37.8096 65.0448 37.6211 65.1198C37.4304 65.1949 37.2097 65.2324 36.959 65.2324C36.719 65.2324 36.5112 65.196 36.3355 65.123C36.1619 65.0501 36.0098 64.944 35.8791 64.8046L36.3355 64.3576C36.434 64.4433 36.5251 64.5066 36.6087 64.5473C36.6944 64.5881 36.7886 64.6084 36.8915 64.6084C37.0201 64.6084 37.1218 64.5784 37.1968 64.5184C37.2697 64.4583 37.3061 64.3693 37.3061 64.2514C37.3061 64.1356 37.2675 64.0456 37.1904 63.9812C37.1133 63.9169 36.9997 63.8847 36.8497 63.8847H36.5219L36.6183 63.2833H36.8658C36.9879 63.2833 37.0811 63.2565 37.1454 63.2029C37.2075 63.1493 37.2386 63.0764 37.2386 62.9842C37.2386 62.8984 37.2129 62.8298 37.1615 62.7783C37.11 62.7269 37.0286 62.7011 36.9172 62.7011C36.7458 62.7011 36.568 62.7751 36.3837 62.923L35.9787 62.4953C36.2658 62.223 36.6226 62.0868 37.049 62.0868ZM40.4365 64.4058C40.4365 64.4851 40.4462 64.5441 40.4654 64.5827C40.4869 64.6213 40.5233 64.6502 40.5747 64.6695L40.4012 65.2131C40.249 65.2024 40.1248 65.1734 40.0283 65.1263C39.9298 65.0791 39.8494 65.003 39.7873 64.8979C39.6394 65.1209 39.4102 65.2324 39.0995 65.2324C38.8745 65.2324 38.6935 65.1638 38.5563 65.0266C38.4171 64.8915 38.3474 64.7178 38.3474 64.5055C38.3474 64.2503 38.4417 64.0563 38.6303 63.9233C38.8188 63.7883 39.092 63.7207 39.4498 63.7207H39.6137V63.666C39.6137 63.5524 39.5902 63.4752 39.543 63.4345C39.498 63.3959 39.4113 63.3766 39.2827 63.3766C39.2141 63.3766 39.1273 63.3873 39.0224 63.4087C38.9152 63.4302 38.806 63.4591 38.6945 63.4956L38.5113 62.9584C38.6506 62.9005 38.8017 62.8555 38.9645 62.8233C39.1295 62.7933 39.2784 62.7783 39.4112 62.7783C39.7712 62.7783 40.0315 62.8469 40.1922 62.9842C40.3551 63.1235 40.4365 63.3358 40.4365 63.621V64.4058ZM39.3598 64.6374C39.4113 64.6374 39.4595 64.6245 39.5045 64.5988C39.5473 64.573 39.5837 64.5398 39.6137 64.4991V64.1614H39.5237C39.4038 64.1614 39.3148 64.1828 39.257 64.2257C39.2013 64.2686 39.1734 64.334 39.1734 64.4219C39.1734 64.4884 39.1906 64.5409 39.2248 64.5795C39.2591 64.6181 39.3041 64.6374 39.3598 64.6374ZM41.661 64.2964V65.1456H40.8158V62.8619H41.661V63.6885H42.0981V62.8619H42.9434V65.1456H42.0981V64.2964H41.661ZM44.6468 65.1456V64.4605C44.6468 64.2075 44.6875 63.9341 44.769 63.6403L44.1229 65.1456H43.3034V62.8619H44.1004V63.5631C44.1004 63.8376 44.0608 64.111 43.9815 64.3833L44.6179 62.8619H45.4439V65.1456H44.6468ZM47.6551 65.1456L47.639 64.4862C47.6347 64.4262 47.6326 64.3393 47.6326 64.2257C47.6326 64.0306 47.6455 63.8172 47.6712 63.5856L47.3948 64.9269H46.7198L46.437 63.5856C46.4627 63.7743 46.4756 63.9791 46.4756 64.1999C46.4756 64.3265 46.4745 64.4219 46.4724 64.4862L46.4531 65.1456H45.6656L45.8521 62.8619H46.8227L47.0573 64.2385L47.2791 62.8619H48.2561L48.449 65.1456H47.6551ZM50.6441 64.4058C50.6441 64.4851 50.6537 64.5441 50.673 64.5827C50.6945 64.6213 50.7309 64.6502 50.7823 64.6695L50.6087 65.2131C50.4566 65.2024 50.3313 65.1734 50.2327 65.1263C50.1363 65.0791 50.057 65.003 49.9949 64.8979C49.847 65.1209 49.6178 65.2324 49.3071 65.2324C49.0821 65.2324 48.9011 65.1638 48.7639 65.0266C48.6246 64.8915 48.555 64.7178 48.555 64.5055C48.555 64.2503 48.6493 64.0563 48.8378 63.9233C49.0264 63.7883 49.2996 63.7207 49.6574 63.7207H49.8213V63.666C49.8213 63.5524 49.7978 63.4752 49.7506 63.4345C49.7056 63.3959 49.6188 63.3766 49.4903 63.3766C49.4217 63.3766 49.3349 63.3873 49.2299 63.4087C49.1228 63.4302 49.0135 63.4591 48.9021 63.4956L48.7189 62.9584C48.8582 62.9005 49.0093 62.8555 49.1721 62.8233C49.3371 62.7933 49.486 62.7783 49.6188 62.7783C49.9788 62.7783 50.2391 62.8469 50.3998 62.9842C50.5627 63.1235 50.6441 63.3358 50.6441 63.621V64.4058ZM49.5674 64.6374C49.6188 64.6374 49.6671 64.6245 49.712 64.5988C49.7549 64.573 49.7913 64.5398 49.8213 64.4991V64.1614H49.7313C49.6113 64.1614 49.5224 64.1828 49.4646 64.2257C49.4089 64.2686 49.381 64.334 49.381 64.4219C49.381 64.4884 49.3981 64.5409 49.4324 64.5795C49.4667 64.6181 49.5117 64.6374 49.5674 64.6374ZM52.37 65.1456V64.4605C52.37 64.2075 52.4096 63.9341 52.4889 63.6403L51.8429 65.1456H51.0233V62.8619H51.8236V63.5631C51.8236 63.8376 51.784 64.111 51.7047 64.3833L52.3411 62.8619H53.1639V65.1456H52.37ZM52.0968 62.4695C51.8526 62.4695 51.664 62.4009 51.5312 62.2637C51.3983 62.1286 51.3233 61.9463 51.3062 61.7169L51.7465 61.6461C51.7701 61.7341 51.8097 61.7973 51.8654 61.8359C51.9233 61.8767 52.0004 61.897 52.0968 61.897C52.1932 61.897 52.2704 61.8767 52.3282 61.8359C52.3839 61.7973 52.4236 61.7341 52.4471 61.6461L52.8875 61.7169C52.8703 61.9463 52.7953 62.1286 52.6625 62.2637C52.5296 62.4009 52.3411 62.4695 52.0968 62.4695ZM54.803 63.4731V65.1456H53.9577V63.4731H53.3438V62.8619H55.4586L55.3494 63.4731H54.803ZM57.7438 63.9748C57.7438 64.0456 57.7373 64.1356 57.7245 64.245H56.3425C56.3639 64.3972 56.411 64.5001 56.4839 64.5538C56.5567 64.6074 56.6617 64.6342 56.7989 64.6342C56.8781 64.6342 56.9596 64.617 57.0431 64.5827C57.1245 64.5505 57.2156 64.5001 57.3163 64.4315L57.657 64.8947C57.3806 65.1198 57.0678 65.2324 56.7185 65.2324C56.3135 65.2324 56.0072 65.1198 55.7993 64.8947C55.5915 64.6717 55.4876 64.3769 55.4876 64.0102C55.4876 63.7807 55.5304 63.5728 55.6161 63.3862C55.704 63.1997 55.8336 63.0517 56.005 62.9423C56.1743 62.833 56.38 62.7783 56.6221 62.7783C56.8471 62.7783 57.0442 62.8255 57.2135 62.9198C57.3806 63.0142 57.5102 63.1503 57.6024 63.3283C57.6966 63.5084 57.7438 63.7239 57.7438 63.9748ZM56.9081 63.7336C56.906 63.6006 56.8856 63.4966 56.8471 63.4216C56.8085 63.3487 56.7399 63.3122 56.6414 63.3122C56.5471 63.3122 56.4764 63.3444 56.4293 63.4087C56.3821 63.4752 56.351 63.5942 56.336 63.7657H56.9081V63.7336ZM59.0551 62.7783C59.3786 62.7783 59.6539 62.8791 59.8811 63.0807L59.5307 63.5728C59.4 63.4677 59.2661 63.4152 59.129 63.4152C58.9983 63.4152 58.9019 63.4602 58.8397 63.5502C58.7776 63.6424 58.7465 63.8 58.7465 64.023C58.7465 64.2353 58.7787 64.3811 58.8429 64.4605C58.9072 64.5377 59.0004 64.5763 59.1226 64.5763C59.1911 64.5763 59.2533 64.5645 59.309 64.5409C59.3668 64.5173 59.4322 64.4766 59.505 64.4187L59.8811 64.9494C59.6518 65.1381 59.3829 65.2324 59.0744 65.2324C58.828 65.2324 58.6137 65.1809 58.4316 65.078C58.2473 64.9772 58.1069 64.8357 58.0105 64.6535C57.9141 64.4691 57.8659 64.2589 57.8659 64.023C57.8659 63.7829 57.9152 63.5685 58.0137 63.3798C58.1123 63.1911 58.2516 63.0442 58.4316 62.9391C58.6094 62.8319 58.8172 62.7783 59.0551 62.7783ZM60.9417 63.5599C61.3252 63.5599 61.608 63.6253 61.7902 63.7561C61.9723 63.8869 62.0634 64.0874 62.0634 64.3576C62.0634 64.6084 61.9734 64.8025 61.7934 64.9397C61.6134 65.0769 61.3681 65.1456 61.0574 65.1456H60.0193V62.8619H60.8645V63.5599H60.9417ZM60.9642 64.6213C61.0477 64.6213 61.1109 64.5956 61.1538 64.5441C61.1945 64.4948 61.2149 64.4272 61.2149 64.3415C61.2149 64.2514 61.1924 64.1839 61.1474 64.1388C61.1045 64.0938 61.0317 64.0713 60.9288 64.0713H60.8645V64.6213H60.9642ZM64.6185 62.7783C64.9099 62.7783 65.1273 62.8845 65.2709 63.0967C65.4166 63.309 65.4895 63.6092 65.4895 63.9973C65.4895 64.2332 65.452 64.4444 65.377 64.6309C65.302 64.8175 65.1948 64.9644 65.0556 65.0716C64.9184 65.1788 64.7599 65.2324 64.5799 65.2324C64.3635 65.2324 64.1867 65.1563 64.0496 65.004V66.0301L63.2043 66.1169V62.8619H63.9564L63.9917 63.0871C64.0817 62.9777 64.1824 62.8984 64.2939 62.8491C64.4053 62.8019 64.5135 62.7783 64.6185 62.7783ZM64.3035 64.6277C64.5156 64.6277 64.6217 64.4219 64.6217 64.0102C64.6217 63.8322 64.6099 63.6982 64.5863 63.6081C64.5628 63.5181 64.5306 63.458 64.4899 63.428C64.4513 63.4001 64.3988 63.3862 64.3324 63.3862C64.2231 63.3862 64.1289 63.457 64.0496 63.5985V64.4701C64.0882 64.528 64.1267 64.5688 64.1653 64.5923C64.206 64.6159 64.2521 64.6277 64.3035 64.6277ZM67.736 64.4058C67.736 64.4851 67.7457 64.5441 67.765 64.5827C67.7864 64.6213 67.8228 64.6502 67.8742 64.6695L67.7007 65.2131C67.5485 65.2024 67.4232 65.1734 67.3246 65.1263C67.2282 65.0791 67.1489 65.003 67.0868 64.8979C66.939 65.1209 66.7097 65.2324 66.399 65.2324C66.174 65.2324 65.993 65.1638 65.8559 65.0266C65.7166 64.8915 65.6469 64.7178 65.6469 64.5055C65.6469 64.2503 65.7412 64.0563 65.9298 63.9233C66.1183 63.7883 66.3915 63.7207 66.7493 63.7207H66.9132V63.666C66.9132 63.5524 66.8897 63.4752 66.8425 63.4345C66.7975 63.3959 66.7108 63.3766 66.5822 63.3766C66.5136 63.3766 66.4269 63.3873 66.3219 63.4087C66.2147 63.4302 66.1055 63.4591 65.994 63.4956L65.8109 62.9584C65.9501 62.9005 66.1012 62.8555 66.264 62.8233C66.429 62.7933 66.5779 62.7783 66.7108 62.7783C67.0707 62.7783 67.3311 62.8469 67.4918 62.9842C67.6546 63.1235 67.736 63.3358 67.736 63.621V64.4058ZM66.6593 64.6374C66.7108 64.6374 66.759 64.6245 66.804 64.5988C66.8468 64.573 66.8832 64.5398 66.9132 64.4991V64.1614H66.8232C66.7033 64.1614 66.6143 64.1828 66.5565 64.2257C66.5008 64.2686 66.4729 64.334 66.4729 64.4219C66.4729 64.4884 66.4901 64.5409 66.5244 64.5795C66.5586 64.6181 66.6036 64.6374 66.6593 64.6374ZM68.9413 62.7783C69.1191 62.7783 69.2787 62.804 69.4201 62.8555C69.5616 62.9091 69.673 62.9842 69.7544 63.0807C69.8358 63.1771 69.8765 63.2897 69.8765 63.4184C69.8765 63.6778 69.7008 63.8494 69.3494 63.933C69.5616 63.9609 69.7201 64.0198 69.8251 64.1099C69.9301 64.2021 69.9826 64.3307 69.9826 64.4959C69.9826 64.736 69.884 64.9183 69.6869 65.0426C69.4876 65.1691 69.2177 65.2324 68.877 65.2324C68.4892 65.2324 68.1688 65.1423 67.916 64.9622L68.3113 64.4959C68.4142 64.5559 68.5052 64.5966 68.5845 64.6181C68.6616 64.6395 68.7495 64.6502 68.8481 64.6502C69.0259 64.6502 69.1148 64.5806 69.1148 64.4412C69.1148 64.3061 69.0259 64.2385 68.8481 64.2385H68.4592L68.5042 63.7271H68.7902C68.9466 63.7271 69.0248 63.6585 69.0248 63.5213C69.0248 63.4634 69.0066 63.4194 68.9702 63.3894C68.9338 63.3573 68.8813 63.3412 68.8127 63.3412C68.7291 63.3412 68.652 63.353 68.5813 63.3766C68.5106 63.398 68.4377 63.4323 68.3627 63.4795L67.9803 63.0485C68.2438 62.8684 68.5642 62.7783 68.9413 62.7783ZM71.7535 63.8847C72.1456 63.9341 72.3417 64.1249 72.3417 64.4573C72.3417 64.6845 72.2463 64.8561 72.0556 64.9719C71.8671 65.0877 71.6099 65.1456 71.2843 65.1456H70.2333V62.8845C70.6297 62.8137 70.9607 62.7783 71.2264 62.7783C71.5499 62.7783 71.8006 62.8298 71.9785 62.9327C72.1563 63.0378 72.2452 63.1932 72.2452 63.3991C72.2452 63.5256 72.2045 63.6317 72.1231 63.7175C72.0395 63.8011 71.9163 63.8569 71.7535 63.8847ZM71.2135 63.2865C71.1878 63.2865 71.1439 63.2897 71.0818 63.2961V63.74H71.2071C71.2735 63.74 71.326 63.7196 71.3646 63.6789C71.4032 63.6403 71.4225 63.5845 71.4225 63.5116C71.4225 63.4409 71.4042 63.3862 71.3678 63.3476C71.3335 63.3069 71.2821 63.2865 71.2135 63.2865ZM71.2521 64.6213C71.4021 64.6213 71.4771 64.5377 71.4771 64.3704C71.4771 64.2954 71.4578 64.2364 71.4192 64.1935C71.3807 64.1528 71.325 64.1324 71.2521 64.1324H71.0818V64.6213H71.2521ZM73.939 65.1456V64.4605C73.939 64.2075 73.9786 63.9341 74.0579 63.6403L73.4119 65.1456H72.5923V62.8619H73.3894V63.5631C73.3894 63.8376 73.3498 64.111 73.2705 64.3833L73.9069 62.8619H74.7328V65.1456H73.939ZM76.372 63.4731V65.1456H75.5267V63.4731H74.9096V62.8619H77.0244L76.9184 63.4731H76.372ZM78.5061 65.1456V64.4605C78.5061 64.2075 78.5468 63.9341 78.6282 63.6403L77.9822 65.1456H77.1626V62.8619H77.9597V63.5631C77.9597 63.8376 77.92 64.111 77.8408 64.3833L78.4771 62.8619H79.3031V65.1456H78.5061ZM81.81 63.9748C81.81 64.0456 81.8036 64.1356 81.7907 64.245H80.4087C80.4302 64.3972 80.4773 64.5001 80.5501 64.5538C80.623 64.6074 80.728 64.6342 80.8651 64.6342C80.9444 64.6342 81.0258 64.617 81.1094 64.5827C81.1908 64.5505 81.2819 64.5001 81.3826 64.4315L81.7232 64.8947C81.4468 65.1198 81.134 65.2324 80.7848 65.2324C80.3798 65.2324 80.0734 65.1198 79.8656 64.8947C79.6577 64.6717 79.5538 64.3769 79.5538 64.0102C79.5538 63.7807 79.5967 63.5728 79.6824 63.3862C79.7702 63.1997 79.8998 63.0517 80.0713 62.9423C80.2405 62.833 80.4462 62.7783 80.6883 62.7783C80.9133 62.7783 81.1104 62.8255 81.2797 62.9198C81.4468 63.0142 81.5765 63.1503 81.6686 63.3283C81.7629 63.5084 81.81 63.7239 81.81 63.9748ZM80.9744 63.7336C80.9722 63.6006 80.9519 63.4966 80.9133 63.4216C80.8748 63.3487 80.8062 63.3122 80.7076 63.3122C80.6133 63.3122 80.5426 63.3444 80.4955 63.4087C80.4484 63.4752 80.4173 63.5942 80.4023 63.7657H80.9744V63.7336ZM83.8927 65.1456L83.8766 64.4862C83.8723 64.4262 83.8702 64.3393 83.8702 64.2257C83.8702 64.0306 83.883 63.8172 83.9088 63.5856L83.6323 64.9269H82.9574L82.6746 63.5856C82.7003 63.7743 82.7132 63.9791 82.7132 64.1999C82.7132 64.3265 82.7121 64.4219 82.7099 64.4862L82.6939 65.1456H81.9032L82.0896 62.8619H83.0603L83.2949 64.2385L83.5166 62.8619H84.4937L84.6865 65.1456H83.8927Z" fill="black"/>
<path d="M56.3971 0.124622L27.4713 12.9901C26.025 13.6334 26.1857 15.5632 27.632 16.0457L35.3456 18.2972L37.7561 26.3381C38.0775 27.6247 39.6844 27.9463 40.4879 26.9814L43.7019 23.2826L51.0941 28.9112C52.0583 29.5545 53.3439 29.072 53.6653 27.9463L58.4862 2.21527C58.8076 0.607079 57.522 -0.357835 56.3971 0.124622ZM52.219 27.303L39.363 17.6539L50.612 7.36148L34.8635 16.3673L28.1141 14.4375L57.0399 1.57199L52.219 27.303Z" fill="#7FC7AF"/>
</svg>
